<!--?xml version="1.0" encoding="utf-8"?-->
<!-- Generator: Adobe Illustrator 18.1.1, SVG Export Plug-In . SVG Version: 6.00 Build 0)  -->

<svg version="1.1" id="_x32_" xmlns="http://www.w3.org/2000/svg" xmlns:xlink="http://www.w3.org/1999/xlink" x="0px" y="0px" viewBox="0 0 512 512" style="width: 32px; height: 32px; opacity: 1;" xml:space="preserve">
<style type="text/css">
	.st0{fill:#4B4B4B;}
</style>
<g>
	<path class="st0" d="M160.49,159.482c6.51-18.719,17.782-31.564,34.346-38.728c-18.254-21.972-42.728-60.136-42.728-106.963
		c0,0-102.4,21.691-152.109,158.254c43.472-6.236,86.945-12.472,93.091,52.692c18.71-17.128,37.236-27.092,53.436-29.701
		L160.49,159.482z" style="fill: rgb(255, 162, 0);"></path>
	<path class="st0" d="M359.982,13.791c0,47.664-25.418,86.391-43.763,108.081c15.272,7.355,25.89,20.01,32.126,38.074l13.582,34.627
		c16.945,1.582,36.964,11.728,56.982,30.164c6.236-65.164,49.708-58.928,93.091-52.692
		C462.382,35.482,359.982,13.791,359.982,13.791z" style="fill: rgb(255, 162, 0);"></path>
	<path class="st0" d="M206.454,81.3c5,21.882,24.491,38.264,47.909,38.264c24,0,43.928-17.2,48.273-39.909
		c7.2-10.446,12.909-23.082,15.164-31.372c2.509-9.164-12.255-5.219-20.855-2.228c-0.781-1.364-1.509-2.755-2.418-4.027
		c11.108-23.954-4.128-48.745-5.818-40.291c-1.091,5.527-6.455,19.309-16.945,22.691c-5.436-2.054-11.255-3.318-17.4-3.318
		c-6.309,0-12.291,1.291-17.836,3.454c-10.746-3.154-16.236-17.236-17.346-22.827c-1.709-8.536-17.236,16.791-5.527,40.936
		c-0.782,1.136-1.328,2.418-2,3.628c-8.491-3.01-24.127-7.428-21.564,1.982C192.473,57.027,198.691,70.573,206.454,81.3z" style="fill: rgb(255, 162, 0);"></path>
	<path class="st0" d="M460.054,306.182c-1.909-0.691-4.036-0.227-5.49,1.181l-31.91,31.137c-1.454,1.427-1.963,3.564-1.309,5.49
		c0.673,1.936,2.382,3.309,4.418,3.536l8.946,0.991c-11.455,23.345-35.273,38.191-61.074,38.2c-5.654,0-11.4-0.708-17.163-2.19
		c-21.6-5.582-37.91-21.009-45.818-40.155V230.728c0,0,19.454,41.99,31.527,69.3c12.491,28.236,53.255,10.428,40.128-17.963
		l-46.255-117.855C326.673,136.992,306.145,127.2,277,127.2h-22.655h-22.654c-29.127,0-49.655,9.792-59.055,37.009L126.4,282.064
		c-13.109,28.391,27.637,46.199,40.128,17.963c12.091-27.309,31.527-69.3,31.527-69.3v53l-39.418,59.345
		c-7.836,11.782-8.764,26.863-2.436,39.528l29.654,59.3c4.928,9.882,16.892,13.973,26.837,9.209l5.018-2.4
		c9.637-4.6,14.036-15.881,10.074-25.791l-17.346-43.364l36.582-48.791l6.364,157.018c0.544,13.509,11.654,24.173,25.163,24.173
		c0.29,0,0.527,0,0.909,0c12.691,0,23-10.291,23-22.982l6.527-112.418c11.037,12.264,25.673,21.546,42.837,25.991
		c7.272,1.882,14.6,2.791,21.818,2.791c33.692,0,64.764-19.727,78.927-50.699l7.146,5.354c1.673,1.264,3.928,1.409,5.764,0.373
		c1.818-1.036,2.854-3.054,2.654-5.137l-4.618-44.627C463.291,308.592,461.946,306.873,460.054,306.182z" style="fill: rgb(255, 162, 0);"></path>
</g>
</svg>
