<!--?xml version="1.0" encoding="utf-8"?-->
<!-- Generator: Adobe Illustrator 18.1.1, SVG Export Plug-In . SVG Version: 6.00 Build 0)  -->

<svg version="1.1" id="_x32_" xmlns="http://www.w3.org/2000/svg" xmlns:xlink="http://www.w3.org/1999/xlink" x="0px" y="0px" viewBox="0 0 512 512" style="width: 32px; height: 32px; opacity: 1;" xml:space="preserve">
<style type="text/css">
	.st0{fill:#4B4B4B;}
</style>
<g>
	<path class="st0" d="M460.588,57.864c-3.004-4.84-7.014-9.315-12.246-13.69c-8.256-6.877-18.85-12.95-32.412-18.567
		c-19.306-7.982-42.986-14.292-70.375-18.749C317.536,2.31,287.407,0,256,0c-27.342,0-53.882,1.771-78.869,5.251
		c-18.138,2.53-35.115,5.918-50.476,10.091C103.011,21.79,84.079,29.781,70.38,39.105c-7.626,5.224-13.37,10.658-17.553,16.603
		c-2.311,3.296-4.091,6.74-5.306,10.228c-1.306,3.744-1.963,7.617-1.963,11.471c0,36.576,5.269,71.874,15.671,104.897
		c14.649,46.521,37.353,82.121,52.366,105.682l1.973,3.096c7.744,12.119,14.438,22.603,19.16,31.763
		c2.594,5.014,4.53,9.526,5.753,13.416c1.233,3.9,1.827,7.315,1.827,10.448c0.008,17.589-2.046,35.014-4.265,51.215
		c-0.685,4.968-1.407,10.001-2.146,15.124c-1.909,13.288-3.881,27.033-5.416,41.782c-0.219,2.091-0.338,4.21-0.338,6.283
		c0.009,8.722,1.945,16.402,5.753,22.841c2.137,3.598,4.831,6.703,8.01,9.224c3.315,2.63,7.114,4.584,11.297,5.826
		C175.021,504.94,208.584,512,256,512h0.018l0.009-2.42V512c47.389,0,80.952-7.06,100.769-12.996
		c4.191-1.242,7.991-3.214,11.288-5.826c4.649-3.681,8.33-8.731,10.639-14.594c2.074-5.242,3.124-11.123,3.133-17.479
		c0-2.045-0.119-4.155-0.338-6.247c-1.535-14.776-3.507-28.529-5.425-41.826c-0.73-5.115-1.452-10.147-2.137-15.106
		c-2.219-16.192-4.275-33.608-4.265-51.215c-0.01-4.128,1.105-9.032,3.306-14.612c4.101-10.466,12.384-23.736,21.233-37.572l2-3.124
		c13.845-21.699,31.078-48.685,44.896-82.449c17.042-41.627,25.325-84.659,25.315-131.546
		C466.461,70.768,464.433,64.001,460.588,57.864z M110.902,236.57c-6.905-12.621-12.704-24.704-17.636-36.777
		c-4.996-12.21-9.233-24.777-12.639-37.434c5.397,3.124,11.489,6.1,18.174,8.868c6.264,2.594,13.169,5.051,20.558,7.334
		L110.902,236.57z M138.162,281.521l-1.15-1.808c-3.37-5.27-6.877-10.767-10.448-16.502c2.219-15.133,9.653-66.12,9.653-66.12
		l56.758,149.071c-9.735-2.667-18.201-6.192-23.278-9.698c-2.95-1.991-4.146-3.562-4.457-4.019c-0.32-0.456-0.42-0.712-0.456-0.767
		l-0.027-2.384h-1.124c-0.621-2.018-1.342-4.064-2.137-6.073C156.172,309.822,147.422,296.078,138.162,281.521z M284.046,352.298
		c-9.124,0.886-18.548,1.334-28.046,1.334c-9.453,0-18.877-0.456-28.046-1.342L256,214.579L284.046,352.298z M271.991,196.131
		c30.686-0.803,60.586-3.972,86.952-9.206l-57.873,152.002L271.991,196.131z M210.931,338.928l-57.874-151.984
		c4.858,0.968,9.818,1.863,14.795,2.667c22.64,3.671,46.896,5.872,72.147,6.53L210.931,338.928z M355.308,471.588
		c-0.639,1.077-1.378,1.936-2.246,2.63c-0.914,0.722-1.936,1.243-3.196,1.617c-18.265,5.462-49.38,11.973-93.865,11.973
		c-44.476,0-75.6-6.512-93.864-11.973c-1.261-0.374-2.284-0.895-3.196-1.617c-1.37-1.095-2.374-2.538-3.187-4.548
		c-0.932-2.347-1.425-5.306-1.425-8.566c0-1.206,0.073-2.466,0.21-3.744l0.009-0.137c1.47-14.1,3.406-27.59,5.278-40.632
		c0.749-5.168,1.479-10.283,2.182-15.379c1.58-11.544,3.26-25.078,4.036-39.16c1.498,0.722,2.968,1.379,4.439,1.991
		c10.483,4.329,23.251,7.744,37.946,10.137c14.914,2.411,30.913,3.635,47.572,3.635c14.503,0,28.594-0.932,41.882-2.786
		c9.699-1.351,18.786-3.169,27.005-5.397c8.146-2.228,15.087-4.713,21.068-7.544c0.776,14.046,2.457,27.58,4.037,39.124
		c0.703,5.087,1.434,10.21,2.174,15.37c1.881,13.087,3.826,26.612,5.297,40.759c0.136,1.296,0.201,2.566,0.201,3.772
		C357.674,465.324,356.833,469.049,355.308,471.588z M378.002,274.982l-2.667,4.191c-7.334,11.479-14.256,22.32-19.562,32.576
		c-3.26,6.32-5.653,11.945-7.324,17.224c-0.036,0.11-0.064,0.219-0.1,0.329h-1.032l-0.1,2.319c0,0-0.046,0.165-0.293,0.566
		c-0.219,0.366-0.913,1.362-2.538,2.722c-2.704,2.264-7.006,4.676-12.119,6.784c-3.863,1.598-8.301,3.096-13.243,4.448
		l56.76-149.052c2.767,19.005,7.315,50.21,9.653,66.12C382.916,267.256,380.432,271.182,378.002,274.982z M427.693,175.035
		c-6.521,20.712-15.033,40.42-26.594,61.553c0,0-8.402-57.572-8.466-58.028c1.699-0.521,3.37-1.06,5.023-1.589
		c13.124-4.338,24.439-9.252,33.736-14.649C430.231,166.661,428.989,170.916,427.693,175.035z M437.766,132.878
		c-1.525,1.864-3.379,3.708-5.525,5.498c-6.247,5.224-15.388,10.411-26.439,14.978c-17.297,7.16-39.69,13.096-64.759,17.16
		c-26.548,4.31-55.16,6.493-85.198,6.493c-50.576,0-99.938-6.704-135.445-18.42c-16.722-5.488-30.238-12.046-39.097-18.969
		c-2.821-2.191-5.187-4.438-7.05-6.702c-1.909-11.453-3.224-23.298-3.909-35.289c3.7,2.74,7.91,5.406,12.567,7.936
		c18.046,9.763,43.288,17.9,73.015,23.535c30.33,5.745,64.933,8.786,100.075,8.786c53.727-0.019,104.34-6.941,142.523-19.499
		c18.102-5.964,32.603-12.94,43.152-20.758C440.989,109.59,439.674,121.408,437.766,132.878z M422.176,92.805
		c-16.712,9.059-40.502,16.685-68.795,22.036c-29.453,5.58-63.107,8.521-97.49,8.521c-52.193,0-101.162-6.667-137.875-18.758
		c-17.188-5.653-31.133-12.43-40.32-19.599c-3.206-2.493-5.872-5.078-7.945-7.708c0.036-2.192,0.721-4.256,2.21-6.667
		c1.562-2.539,4.055-5.26,7.206-7.891c6.138-5.15,15.179-10.255,26.156-14.794c17.315-7.169,39.799-13.123,65.006-17.206
		c26.731-4.348,55.563-6.548,85.672-6.548c26.238,0,51.644,1.689,75.535,5.014c17.142,2.393,33.106,5.571,47.462,9.48
		c20.503,5.544,37.892,12.786,48.97,20.392c5.069,3.453,9.004,7.096,11.397,10.521c1.023,1.471,1.79,2.904,2.265,4.265
		c0.411,1.206,0.612,2.319,0.621,3.47C438.058,82.631,431.135,87.965,422.176,92.805z" style="fill: rgb(255, 162, 0);"></path>
	<path class="st0" d="M105.906,127.655c-4.758,0-8.621,3.854-8.621,8.621c0,4.749,3.863,8.612,8.621,8.612
		c4.758,0,8.612-3.863,8.612-8.612C114.518,131.509,110.664,127.655,105.906,127.655z" style="fill: rgb(255, 162, 0);"></path>
	<path class="st0" d="M256,150.487c-4.758,0-8.621,3.854-8.621,8.612c0,4.757,3.863,8.612,8.621,8.612
		c4.758,0,8.622-3.855,8.622-8.612C264.622,154.341,260.758,150.487,256,150.487z" style="fill: rgb(255, 162, 0);"></path>
	<path class="st0" d="M406.094,139.235c4.758,0,8.622-3.854,8.622-8.612c0-4.758-3.863-8.612-8.622-8.612
		c-4.758,0-8.612,3.854-8.612,8.612C397.482,135.381,401.336,139.235,406.094,139.235z" style="fill: rgb(255, 162, 0);"></path>
</g>
</svg>
