<!--?xml version="1.0" encoding="utf-8"?-->
<!-- Generator: Adobe Illustrator 18.1.1, SVG Export Plug-In . SVG Version: 6.00 Build 0)  -->

<svg version="1.1" id="_x32_" xmlns="http://www.w3.org/2000/svg" xmlns:xlink="http://www.w3.org/1999/xlink" x="0px" y="0px" viewBox="0 0 512 512" style="width: 32px; height: 32px; opacity: 1;" xml:space="preserve">
<style type="text/css">
	.st0{fill:#4B4B4B;}
</style>
<g>
	<path class="st0" d="M512,274.263c0-55.272-44.789-99.975-99.975-99.975c-33.95,0-63.986,16.888-82.02,42.75
		c-1.024,1.466-1.796,3.08-2.742,4.599c-16.202-43.773-26.591-88.268-33.82-130.176l-1.596-9.242H190.803l-1.605,9.242
		c-8.704,50.656-22.034,105.13-44.608,157.565c-8.53,19.639-18.311,39.009-29.68,57.764C87.097,352.646,50.213,395.032,0,429.78
		h37.058c40.883-32.883,72.43-71.006,96.868-111.526c13.686-22.572,25.063-45.77,34.661-69.227c3.02-7.29,5.772-14.484,8.436-21.774
		h128.596c2.664,7.29,5.415,14.484,8.444,21.774c2.837,6.838,5.771,13.773,8.973,20.524c6.04,13.244,12.705,26.4,20.255,39.374
		c1.693,3.107,3.558,6.214,5.424,9.329c17.599,29.151,38.836,57.052,64.611,82.558c10.041,10.04,20.88,19.726,32.344,28.968h37.058
		c-14.484-10.041-27.902-20.707-40.26-31.902c-8.592-7.741-16.646-15.777-24.291-24.022c6.283-0.391,12.48-1.163,18.372-2.638
		C479.916,360.284,512,321.006,512,274.263z M182.628,211.258c12.081-36.258,20.525-72.43,26.834-106.822h63.716
		c6.309,34.392,14.753,70.564,26.842,106.822H182.628z" style="fill: rgb(255, 162, 0);"></path>
</g>
</svg>
