<!--?xml version="1.0" encoding="utf-8"?-->
<!-- Generator: Adobe Illustrator 18.1.1, SVG Export Plug-In . SVG Version: 6.00 Build 0)  -->

<svg version="1.1" id="_x32_" xmlns="http://www.w3.org/2000/svg" xmlns:xlink="http://www.w3.org/1999/xlink" x="0px" y="0px" viewBox="0 0 512 512" style="width: 32px; height: 32px; opacity: 1;" xml:space="preserve">
<style type="text/css">
	.st0{fill:#4B4B4B;}
</style>
<g>
	<path class="st0" d="M400.978,128.071c3.274,0,5.921-2.647,5.921-5.92c0-3.267-2.647-5.921-5.921-5.921
		c-3.258,0-5.92,2.654-5.92,5.921C395.058,125.424,397.72,128.071,400.978,128.071z" style="fill: rgb(255, 162, 0);"></path>
	<path class="st0" d="M356.962,315.545c-3.199,6.726-8.016,13.742-15.584,21.721c-1.224-2.184-2.58-4.109-4.049-5.622l-5.794,5.622
		c1.551,1.574,3.46,4.564,4.862,8.285c1.417,3.735,2.372,8.202,2.364,12.899c0,4.594-0.895,9.38-3.154,14.049
		c-2.274,4.652-5.876,9.216-11.52,13.377c-6.994,5.16-18.41,12.9-29.208,19.268c-5.398,3.184-10.656,6.04-15.07,8.052
		c-2.2,1-4.19,1.782-5.838,2.297c-1.208,0.396-2.23,0.612-2.924,0.686c0-0.708,0.12-1.73,0.35-2.968
		c0.418-2.282,1.231-5.234,2.193-8.538c1.446-4.958,3.28-10.73,4.757-16.688c1.469-5.928,2.61-12.013,2.618-17.814
		c-0.008-4.594-0.716-9.083-2.878-13.034l-7.069,3.877c1.089,1.968,1.678,4.608,1.82,7.71c-5.622,0.388-11.371,0.627-17.165,0.627
		c-12.035,0-24.174-0.806-35.195-2.178c1.64-4.817,2.349-9.679,2.349-14.168c0-3.683-0.448-7.143-1.2-10.208
		c-0.761-3.08-1.804-5.778-3.124-7.994l-6.935,4.154c0.806,1.313,1.641,3.325,2.222,5.756c0.59,2.431,0.962,5.257,0.962,8.292
		c0,5.578-1.267,11.744-4.541,17.307c-3.266,5.578-8.5,10.671-16.934,14.31c-6.98,2.99-18.858,6.949-30.662,10.104
		c-5.913,1.58-11.819,2.96-17.083,3.952c-5.265,0.977-9.94,1.551-13.168,1.529c-1.119,0.022-2.021-0.067-2.7-0.172
		c0.381-0.738,1.015-1.737,1.857-2.885c1.82-2.491,4.571-5.622,7.628-9.067c4.586-5.198,9.903-11.125,14.176-17.277
		c2.132-3.087,4.012-6.234,5.406-9.44c1.38-3.214,2.282-6.525,2.289-9.918c0-1.529-0.179-3.05-0.604-4.548l-7.77,2.155
		c0.104,0.41,0.186,0.828,0.231,1.26c-32.317-8.821-52.733-21.348-65.066-35.068c-2.602-2.901-4.764-5.861-6.703-8.858
		c-0.18,0.104-0.336,0.208-0.515,0.313c-1.894,1.186-4.056,2.505-6.51,3.788c4.884,7.613,11.484,14.913,20.186,21.602
		c13.548,10.432,32.071,19.41,56.976,26.15c-1.372,3.192-3.541,6.696-6.188,10.238c-4.519,6.077-10.216,12.214-14.891,17.59
		c-2.334,2.699-4.414,5.19-6.033,7.538c-0.79,1.186-1.484,2.319-2.02,3.512c-0.529,1.2-0.947,2.453-0.962,3.996
		c0,0.515,0.06,1.074,0.202,1.633c0.306,1.32,1.119,2.483,2.028,3.228c1.372,1.134,2.812,1.582,4.258,1.909
		c1.469,0.291,3.028,0.396,4.728,0.396c4.086,0,9.089-0.641,14.638-1.678c8.328-1.544,17.843-3.982,26.717-6.637
		c8.873-2.647,17.053-5.503,22.742-7.933c9.679-4.132,16.322-10.35,20.439-17.21c12.072,1.64,25.442,2.61,38.774,2.61
		c5.6,0,11.192-0.187,16.68-0.544c-0.238,1.685-0.551,3.408-0.917,5.175c-1.342,6.338-3.392,12.952-5.16,18.873
		c-0.88,2.968-1.678,5.764-2.282,8.314c-0.589,2.566-1.014,4.847-1.014,7.054c0.008,1.446,0.149,2.923,0.917,4.459
		c0.656,1.312,1.864,2.363,3.065,2.856c1.2,0.537,2.356,0.671,3.468,0.671c1.946-0.015,3.847-0.448,5.95-1.089
		c3.654-1.148,7.86-3.057,12.43-5.428c13.691-7.122,30.542-18.403,40.064-25.383c6.606-4.862,11.155-10.513,14.004-16.374
		c2.833-5.876,3.966-11.915,3.966-17.568c0-4.742-0.812-9.178-2.043-13.146c11.178-11.236,17.71-21.191,21.52-31.116
		c0.254-0.657,0.425-1.298,0.656-1.954c-2.878,1.238-6.122,2.341-9.925,3.087C357.022,315.396,357,315.47,356.962,315.545z" style="fill: rgb(255, 162, 0);"></path>
	<path class="st0" d="M510.248,96.157c-1.17-2.394-2.982-4.542-5.428-6.003c-2.954-1.782-6.227-2.453-9.344-2.446
		c-3.661,0.016-7.203,0.873-10.446,1.984c-3.251,1.133-6.234,2.565-8.732,3.84c-3.259,1.693-8.485,3.475-14.235,4.75
		c-5.763,1.305-12.109,2.132-17.806,2.125c-2.923,0.008-5.682-0.216-8.054-0.686c-3.661-0.694-6.569-1.641-9.261-2.714
		c-4.034-1.596-7.62-3.564-12.184-5.279c-4.548-1.7-9.984-3.028-17.291-3.259h0.03c-0.47-0.015-0.902-0.03-1.335-0.03
		c-11.304,0-21.497,4.847-28.79,12.46c-7.307,7.606-11.804,18.022-11.804,29.319c0.008,1.156-0.194,3.624-0.686,6.845
		c-1.722,11.311-6.971,32.302-18.067,50.824c-5.562,9.284-12.549,17.926-21.192,24.577c-8.672,6.644-18.962,11.341-31.452,12.802
		h0.015c-1.119,0.134-2.193,0.194-3.222,0.194c-3.206,0-6.077-0.566-8.888-1.468c-4.228-1.35-8.262-3.49-12.713-5.458
		c-4.415-1.954-9.321-3.713-15.07-3.713c-4.646,0.044-9.134,1.782-13.622,4.086c-6.696,3.483-13.43,8.471-19.216,12.505
		c-2.871,2.021-5.518,3.803-7.651,4.989c-1.051,0.596-1.99,1.05-2.692,1.312c-0.708,0.269-1.171,0.328-1.201,0.321
		c-0.969,0.008-2.699-0.38-4.824-1.126c-3.198-1.118-7.255-2.938-11.826-4.542c-4.572-1.58-9.724-2.937-15.286-2.937
		c-2.013,0-4.086,0.186-6.181,0.604c-2.364,0.477-4.512,1.424-6.465,2.624c-3.423,2.132-6.286,5.011-9.052,8.038
		c-4.123,4.556-8.024,9.514-12.236,13.153c-2.095,1.82-4.243,3.311-6.487,4.325c-2.252,1.006-4.572,1.58-7.233,1.588
		c-0.828,0-1.685-0.067-2.588-0.186h0.008c-1.514-0.202-2.67-0.559-3.534-1.014c-1.29-0.671-2.028-1.432-2.647-2.648
		c-0.604-1.216-0.999-2.96-0.999-5.316c0-2.528,0.462-5.697,1.372-9.343c2.751-10.998,9.656-26.36,18.939-44.434
		c4.496-7.808,6.413-15.376,6.406-22.34c0-5.726-1.275-10.984-3.281-15.644c-3.004-6.979-7.613-12.594-12.192-16.703
		c-2.289-2.036-4.593-3.698-6.748-4.973c-2.156-1.267-4.116-2.162-6.07-2.61l0.008,0.008c-1.938-0.433-3.669-0.641-5.22-0.641
		c-1.7,0.014-3.214,0.208-4.742,0.954c-0.753,0.38-1.543,0.924-2.184,1.79c-0.649,0.842-1.059,2.036-1.052,3.154
		c0,1.126,0.35,2.103,0.783,2.871c0.679,1.164,1.536,1.961,2.506,2.677c0.79,0.574,1.707,1.081,2.692,1.536
		c1.79,1.588,3.005,3.288,3.796,5.16c0.857,1.968,1.26,4.175,1.26,6.658c0.016,3.661-0.909,7.897-2.542,12.364
		c-2.424,6.696-6.39,13.869-10.618,20.61c-4.213,6.755-8.68,13.049-12.124,18.202c-3.915,5.898-8.65,14.518-12.453,24.897
		c-3.78,10.364-6.628,22.459-6.628,35.203c0,6.361,0.723,12.892,2.401,19.424c0.865-0.507,1.745-1.029,2.699-1.61
		c1.387-0.873,2.93-1.82,4.608-2.774c-1.096-5.026-1.64-10.067-1.64-15.04c-0.008-11.543,2.594-22.75,6.152-32.436
		c3.534-9.671,8-17.828,11.58-23.182c4.459-6.696,11.02-15.823,16.531-25.576c2.752-4.877,5.25-9.91,7.091-14.966
		c1.812-5.056,3.013-10.133,3.02-15.115c0-3.362-0.567-6.703-1.901-9.842c-0.842-1.976-2.036-3.833-3.497-5.556
		c1.663,0.82,3.78,2.192,5.965,4.019c3.34,2.804,6.83,6.659,9.41,11.267c2.602,4.63,4.317,9.947,4.325,15.875
		c-0.008,5.54-1.491,11.677-5.421,18.478l-0.052,0.089l-0.052,0.104c-6.248,12.184-11.49,23.198-15.204,32.794
		c-1.864,4.802-3.348,9.246-4.369,13.348c-1.022,4.101-1.611,7.844-1.618,11.304c0,2.148,0.231,4.191,0.768,6.1
		c0.798,2.878,2.386,5.525,4.75,7.412c2.349,1.916,5.316,3.012,8.627,3.46c1.253,0.178,2.491,0.253,3.684,0.253
		c5.906,0.015,11.006-2.043,15.241-4.952c6.346-4.354,11.103-10.484,15.577-15.509c2.23-2.52,4.362-4.757,6.42-6.398
		c2.066-1.648,3.967-2.647,5.808-3.012h0.008c1.543-0.313,3.065-0.448,4.601-0.448c5.63-0.015,11.372,1.909,16.71,4.012
		c2.684,1.058,5.257,2.133,7.74,3.012c2.49,0.858,4.891,1.551,7.486,1.566c1.976-0.015,3.602-0.612,5.294-1.358
		c2.93-1.327,6.032-3.363,9.425-5.696c5.048-3.49,10.663-7.651,16.01-10.865c2.676-1.618,5.272-2.975,7.628-3.899
		c2.341-0.925,4.429-1.388,6.024-1.38c2.722,0,5.25,0.537,7.859,1.439c3.9,1.327,7.95,3.527,12.587,5.503
		c4.63,1.976,9.954,3.698,16.226,3.698c1.342,0,2.729-0.09,4.131-0.246l-0.79,0.089l0.798-0.089
		c16.002-1.849,29.081-8.598,39.446-17.739c15.562-13.705,25.218-32.586,31.101-49.192c2.938-8.291,4.914-16.024,6.182-22.31
		c0.626-3.139,1.066-5.927,1.364-8.247c0.298-2.319,0.448-4.153,0.448-5.584c0-9.134,3.639-17.59,9.552-23.742
		c5.913-6.151,13.988-9.962,22.966-9.962c0.358,0,0.686,0,1.014,0.015h0.03c8.687,0.313,13.467,2.103,18.56,4.354
		c2.535,1.119,5.138,2.394,8.187,3.616c3.043,1.216,6.518,2.349,10.738,3.154c3.012,0.582,6.241,0.82,9.567,0.82
		c6.457,0,13.302-0.909,19.574-2.311c6.279-1.424,11.938-3.296,16.166-5.458c2.304-1.186,4.973-2.446,7.68-3.378
		c2.714-0.955,5.443-1.559,7.8-1.559c2.021,0.015,3.714,0.418,5.182,1.298l0.023,0.015c0.954,0.581,1.729,1.454,2.326,2.64
		c0.596,1.193,0.939,2.669,0.932,4.19c0,1.812-0.477,3.654-1.416,5.19c-0.947,1.558-2.289,2.848-4.325,3.735
		c-0.344,0.134-0.984,0.38-1.797,0.619c-3.102,0.969-8.709,2.282-15.309,3.654c-9.895,2.066-22.123,4.31-32.361,6.099
		c-5.123,0.903-9.762,1.693-13.362,2.282c-3.58,0.589-6.204,0.984-7.099,1.103c-1.79,0.238-3.386,0.701-4.825,1.752
		c-0.716,0.537-1.372,1.23-1.826,2.095c-0.477,0.858-0.716,1.857-0.716,2.804c0,1.148,0.342,2.192,0.798,3.057
		c0.708,1.29,1.693,2.252,2.819,3.042c1.133,0.768,2.43,1.372,3.877,1.79h0.014c0.426,0.119,1.626,0.529,3.192,1.074
		c5.548,1.976,16.278,5.996,26.576,9.679c5.153,1.834,10.2,3.602,14.488,5.004c2.148,0.693,4.101,1.297,5.801,1.782
		c1.499,0.424,2.744,0.738,3.878,0.939c-0.06,0.328-0.194,0.776-0.47,1.29c-0.619,1.148-1.842,2.52-3.654,3.564
		c-1.82,1.036-4.206,1.797-7.293,1.797c-3.848,0-8.851-1.186-14.98-4.757c-9.544-5.563-19.626-8.173-28.38-8.195
		c-4.788,0.022-9.209,0.79-12.99,2.439c-2.998,1.298-5.689,2.676-8.194,4.317c-3.744,2.468-6.995,5.6-9.948,9.79
		c-2.982,4.19-5.734,9.425-8.888,16.412c-10.342,22.974-15.801,41.526-18.873,57.11c-2.304,11.677-3.244,21.661-3.937,30.512
		c-0.396,5.138-0.738,9.798-1.164,14.265c0.202-0.127,0.396-0.239,0.604-0.366c2.259-1.41,4.862-3.02,7.934-4.519
		c0.753-9.701,1.342-20.214,3.482-32.854c2.714-16.054,7.942-35.554,19.313-60.846c4.049-9.007,7.263-14.495,10.588-18.171
		c1.663-1.857,3.356-3.289,5.332-4.586c1.976-1.312,4.243-2.476,6.98-3.676h0.007c2.475-1.089,5.846-1.752,9.754-1.752
		c7.143,0,15.986,2.215,24.315,7.091c7.092,4.132,13.497,5.861,19.045,5.861c5.913,0.015,10.767-1.998,14.115-4.854
		c1.677-1.402,2.998-3.027,3.914-4.735c0.932-1.722,1.499-3.542,1.499-5.481c0.008-1.588-0.426-3.34-1.581-4.817
		c-1.134-1.454-2.916-2.416-4.705-2.684c-0.798-0.12-2.327-0.5-4.191-1.051c-0.09-0.023-0.186-0.06-0.276-0.082
		c-0.254-2.67-0.694-5.622-1.432-5.846c-0.738-0.231-2.96,1.864-4.854,3.848c-3.341-1.111-7.099-2.416-10.984-3.802
		c-0.224-2.856-0.671-6.622-1.506-6.89c-0.812-0.231-3.392,2.289-5.391,4.414c-1.142-0.424-2.267-0.828-3.401-1.238
		c-5.018-1.834-9.768-3.586-13.548-4.966c-1.886-0.701-3.542-1.274-4.884-1.759c-0.328-0.112-0.626-0.216-0.917-0.321
		c0.328-0.045,0.648-0.097,0.999-0.156c3.386-0.537,8.232-1.342,13.802-2.312c1.746,1.999,3.766,4.116,4.504,3.878
		c0.634-0.232,1.178-2.55,1.566-4.952c4.041-0.708,8.307-1.476,12.564-2.281c1.499,2.192,3.303,4.533,4.071,4.362
		c0.738-0.156,1.626-2.96,2.312-5.578c2.871-0.559,5.667-1.111,8.336-1.663c1.596,2.409,3.9,5.593,4.772,5.399
		c0.88-0.186,1.968-4.094,2.662-6.972c0.224-0.06,0.477-0.105,0.708-0.156c2.752-0.627,5.212-1.216,7.271-1.775
		c2.072-0.567,3.698-1.059,5.018-1.619h0.008c3.579-1.528,6.316-4.064,8.06-6.971c1.745-2.916,2.558-6.182,2.558-9.366
		C512,101.212,511.426,98.558,510.248,96.157z" style="fill: rgb(255, 162, 0);"></path>
	<path class="st0" d="M444.906,301.064c-11.588-0.082-16.494-3.273-22.742-7.069c-6.13-3.84-13.594-8.284-26.754-8.202
		c-13.154-0.082-20.61,4.362-26.732,8.202c-6.241,3.796-11.148,6.988-22.728,7.069c-11.565-0.082-16.457-3.273-22.697-7.069
		c-6.115-3.84-13.572-8.284-26.718-8.202c-13.153-0.082-20.61,4.362-26.731,8.202c-6.241,3.796-11.14,6.988-22.713,7.069
		c-11.573-0.082-16.472-3.273-22.714-7.069c-6.114-3.84-13.57-8.284-26.717-8.202c-13.146-0.082-20.61,4.362-26.724,8.202
		c-6.241,3.796-11.14,6.988-22.713,7.069c-11.565-0.082-16.464-3.273-22.705-7.069c-6.122-3.84-13.578-8.284-26.724-8.202
		c-13.139-0.082-20.596,4.362-26.71,8.202c-6.241,3.796-11.133,6.988-22.698,7.069c-11.558-0.082-16.449-3.266-22.683-7.069
		c-6.115-3.84-13.564-8.284-26.702-8.202v7.636c11.558,0.082,16.457,3.266,22.69,7.061c6.107,3.84,13.563,8.292,26.695,8.21
		c13.138,0.082,20.595-4.37,26.709-8.202c6.241-3.804,11.133-6.988,22.698-7.069c11.572,0.082,16.471,3.266,22.712,7.069
		c6.115,3.832,13.571,8.284,26.717,8.202c13.146,0.082,20.603-4.37,26.725-8.202c6.241-3.804,11.14-6.988,22.712-7.069
		c11.566,0.082,16.465,3.266,22.706,7.069c6.122,3.832,13.578,8.284,26.724,8.202c13.146,0.082,20.602-4.37,26.724-8.202
		c6.241-3.804,11.147-6.988,22.72-7.069c11.566,0.082,16.465,3.266,22.706,7.069c6.114,3.832,13.571,8.284,26.709,8.202
		c13.154,0.082,20.618-4.37,26.74-8.202c6.242-3.804,11.147-6.988,22.72-7.069c11.587,0.082,16.494,3.273,22.743,7.069
		c6.129,3.84,13.593,8.284,26.754,8.202c13.161,0.082,20.625-4.362,26.754-8.202c6.248-3.796,11.155-6.988,22.742-7.069v-7.636
		c-13.161-0.082-20.625,4.362-26.754,8.202C461.399,297.791,456.493,300.982,444.906,301.064z" style="fill: rgb(255, 162, 0);"></path>
</g>
</svg>
